# xmcd CD database file generated by Grip 2.91
# 
# Track frame offsets:
#       150
#       11435
#       23025
#       38902
#       57065
#       71132
#       95805
#       110390
#       126920
#       141287
#       152245
#       164597
#       178637
#       191162
# 
# Disc length: 2749 seconds
# 
# Revision: 3
# Processed by: cddbd v1.4b41PL1 Copyright (c) Steve Scherf et al.
# Submitted via: Grip 2.91
# 
DISCID=c60abb0e
DTITLE=Canned Heat - House Of Blue Lights
DYEAR=1900
DGENRE=
TTITLE0=Can't Hold On
TTITLE1=Straight Ahead
TTITLE2=House Of Blue Lights
TTITLE3=Just Got To Be There
TTITLE4=You Just Got To Rock
TTITLE5=Human Condition
TTITLE6=She's Looking Good
TTITLE7=Open Up Your Back Door
TTITLE8=Wrapped Up
TTITLE9=Spoonful
TTITLE10=I've Got My Mojo Working
TTITLE11=Louise Blues
TTITLE12=Strut My Stuff
TTITLE13=Hot Honey
EXTD=
EXTT0=
EXTT1=
EXTT2=
EXTT3=
EXTT4=
EXTT5=
EXTT6=
EXTT7=
EXTT8=
EXTT9=
EXTT10=
EXTT11=
EXTT12=
EXTT13=
PLAYORDER=
